<?xml version="1.0" standalone="no"?>
<!DOCTYPE svg PUBLIC "-//W3C//DTD SVG 20010904//EN"
 "http://www.w3.org/TR/2001/REC-SVG-20010904/DTD/svg10.dtd">
<svg version="1.0" xmlns="http://www.w3.org/2000/svg"
 width="272.000000pt" height="217.000000pt" viewBox="0 0 272.000000 217.000000"
 preserveAspectRatio="xMidYMid meet">

<g transform="translate(0.000000,217.000000) scale(0.100000,-0.100000)"
fill="#000000" stroke="none">
<path d="M1787 1300 c-29 -23 -99 -131 -129 -198 -11 -26 -37 -96 -58 -157
-40 -116 -56 -139 -144 -207 -74 -57 -85 -48 -40 35 29 55 26 77 -10 77 -19 0
-33 -14 -64 -62 -40 -63 -45 -82 -17 -58 13 11 15 9 15 -14 0 -50 -31 -101
-114 -186 -88 -90 -116 -132 -116 -175 0 -54 52 -95 101 -80 27 9 80 119 124
258 l37 118 69 54 c83 67 104 71 95 18 -28 -170 -10 -246 60 -246 32 1 77 43
146 140 29 40 56 73 59 73 4 0 17 -11 28 -26 54 -69 134 -41 214 76 17 25 35
48 41 52 11 8 13 16 17 107 2 48 -1 57 -25 78 -44 37 -83 26 -113 -32 -10 -18
-34 -44 -53 -57 -38 -26 -76 -74 -135 -174 -62 -105 -133 -186 -158 -182 -28
4 -35 36 -25 124 9 80 37 163 72 209 61 81 142 207 172 270 40 81 44 135 14
165 -25 25 -31 25 -63 0z m43 -69 c0 -32 -62 -162 -115 -241 l-36 -55 6 37 c8
53 43 155 72 213 42 86 73 105 73 46z m234 -278 c10 -26 -15 -126 -35 -145
-11 -9 -19 -26 -19 -37 0 -27 -63 -97 -99 -109 -51 -18 -64 15 -34 90 20 52
41 78 63 78 11 0 22 17 34 55 9 30 24 61 32 70 20 20 50 19 58 -2z m-788 -445
c-10 -55 -50 -148 -77 -180 -34 -41 -59 -33 -59 18 0 39 23 84 79 152 43 52
66 56 57 10z"/>
<path d="M216 1238 c-20 -31 -127 -355 -167 -505 -32 -124 -33 -168 -3 -180 8
-3 17 -4 19 -2 2 2 15 53 29 113 13 60 29 113 34 118 6 6 34 -28 76 -92 101
-152 159 -210 215 -210 24 0 91 61 91 84 0 15 -2 15 -31 1 -49 -26 -86 -6
-180 93 -87 92 -119 137 -119 164 0 9 19 30 41 47 87 64 243 231 279 300 9 17
9 30 1 47 -15 33 -35 30 -49 -8 -26 -71 -233 -298 -272 -298 -9 0 -11 11 -6
41 7 45 55 188 81 243 28 58 -6 94 -39 44z"/>
<path d="M574 1053 c-3 -10 -15 -39 -26 -65 -37 -84 6 -77 53 8 18 34 24 53
17 62 -15 17 -38 15 -44 -5z"/>
<path d="M788 969 c-13 -18 -46 -55 -74 -83 -28 -28 -66 -74 -83 -102 -34 -53
-82 -90 -107 -80 -20 8 -17 32 9 97 24 58 25 79 2 79 -44 0 -79 -124 -50 -179
20 -41 50 -48 86 -22 36 27 43 26 63 -4 21 -32 71 -58 98 -49 32 10 107 83
129 125 15 31 26 39 61 47 34 8 37 10 15 11 -35 1 -40 16 -27 75 16 73 -14
115 -82 116 -9 0 -27 -14 -40 -31z m87 -21 c9 -28 -14 -119 -36 -144 -11 -11
-16 -23 -13 -27 10 -9 -57 -94 -84 -106 -60 -28 -83 5 -57 80 24 67 43 91 66
84 14 -5 19 -2 19 12 1 24 33 95 54 115 20 20 43 14 51 -14z"/>
<path d="M1333 948 c-61 -16 -183 -179 -183 -246 0 -39 23 -87 45 -96 27 -10
88 44 70 62 -4 4 -11 -1 -16 -11 -12 -20 -37 -23 -45 -4 -7 19 23 102 54 151
44 70 74 96 114 102 27 5 38 12 38 24 0 22 -33 29 -77 18z"/>
<path d="M2206 932 c-24 -28 -27 -106 -4 -164 21 -56 14 -79 -31 -102 -15 -8
-44 -33 -65 -56 -28 -31 -35 -46 -30 -63 24 -79 122 -86 178 -12 22 28 26 44
26 99 l0 65 45 22 c25 12 45 26 45 31 0 4 6 8 13 8 8 0 22 9 32 20 24 26 29
25 43 -5 24 -52 15 -82 -30 -113 -57 -39 -77 -62 -83 -98 -10 -58 57 -96 122
-69 42 18 73 69 73 120 0 69 9 82 81 127 38 23 69 48 69 55 0 19 -9 16 -73
-22 -32 -19 -64 -35 -72 -35 -18 0 -30 57 -29 143 0 58 -2 67 -17 67 -28 0
-49 -40 -49 -92 0 -40 -3 -48 -18 -48 -10 0 -42 -16 -72 -35 -30 -19 -63 -35
-72 -35 -29 0 -49 102 -36 185 4 26 -24 31 -46 7z m14 -311 c0 -42 -44 -91
-81 -91 -23 0 -29 4 -29 23 0 29 10 43 51 72 45 32 59 31 59 -4z m260 -4 c0
-12 -9 -37 -20 -54 -16 -27 -26 -33 -56 -33 -33 0 -35 2 -32 27 2 18 17 38 46
60 47 35 62 35 62 0z"/>
</g>
</svg>
